#!OML:ASF X:\für Bonn\!DataBase\2005_08_11_Bastian_Final\c3d\Bastian.ASF
:FULLY-SPECIFIED
:DEGREES
241
root -3.26362 3.38793 21.9064 -967.12 0.829687 -165.658
lowerback 64.9037 2.2331 18.8945
upperback 25.9236 -8.39825 6.35634
thorax 10.1884 -12.6223 0.137141
lowerneck -8.00635 -4.98528 -11.1638
upperneck -11.6346 -4.34917 8.88428
head -1.67539 -1.3984 4.46108
rclavicle 2.3059e-014 7.95139e-016
rhumerus -39.6742 47.371 -100.824
rradius 31.0909
rwrist -16.5998
rhand -24.5943 -11.6665
rfingers 7.12502
rthumb 1.90342 -41.6377
lclavicle 2.3059e-014 7.95139e-016
lhumerus -23.0467 33.8601 71.1955
lradius 13.4635
lwrist 29.616
lhand -18.5106 -18.4877
lfingers 7.12502
lthumb 7.77755 11.3492
rfemur -25.26 -69.2672 -24.2166
rtibia 153.701
rfoot -33.0602 13.2393
rtoes -23.8616
lfemur -57.0173 13.5991 -20.692
ltibia 80.4453
lfoot 2.78048 -4.99289
ltoes -4.84222
242
root -3.25188 3.355 21.9058 -967.358 0.960404 -165.762
lowerback 64.7509 2.26511 18.867
upperback 25.9205 -8.37677 6.42854
thorax 10.1867 -12.6294 0.211194
lowerneck -8.07751 -4.58548 -10.9346
upperneck -11.4825 -3.85594 8.51701
head -1.68487 -1.16504 4.31887
rclavicle 8.74653e-015 -6.75868e-014
rhumerus -39.9957 47.1826 -101.21
rradius 31.1674
rwrist -16.8508
rhand -25.5923 -12.212
rfingers 7.12502
rthumb 0.939476 -42.1896
lclavicle 8.74653e-015 -6.75868e-014
lhumerus -23.2602 33.6062 71.2574
lradius 13.4789
lwrist 29.8746
lhand -18.6298 -18.5275
lfingers 7.12502
lthumb 7.66252 11.3137
rfemur -24.9823 -69.5958 -24.4581
rtibia 153.863
rfoot -32.711 13.0778
rtoes -23.766
lfemur -56.1967 13.0886 -20.1679
ltibia 78.9721
lfoot 2.51957 -4.8028
ltoes -4.25482
243
root -3.23932 3.32109 21.9035 -967.607 1.07122 -165.891
lowerback 64.609 2.31923 18.8264
upperback 25.9308 -8.34461 6.49854
thorax 10.1999 -12.6346 0.281807
lowerneck -8.167 -4.18019 -10.6879
upperneck -11.3279 -3.35266 8.16576
head -1.68832 -0.926604 4.17799
rclavicle -3.10104e-014 -2.8625e-014
rhumerus -40.1926 46.8484 -101.456
rradius 31.225
rwrist -17.2083
rhand -26.5197 -12.6852
rfingers 7.12502
rthumb 0.0438039 -42.6649
lclavicle -3.10104e-014 -2.8625e-014
lhumerus -23.4405 33.3994 71.2937
lradius 13.4635
lwrist 30.0425
lhand -18.6991 -18.5332
lfingers 7.12502
lthumb 7.59558 11.3104
rfemur -24.5703 -69.9394 -24.8557
rtibia 154.03
rfoot -32.3764 12.8939
rtoes -23.6843
lfemur -55.3837 12.6298 -19.6895
ltibia 77.5812
lfoot 2.27813 -4.62872
ltoes -3.64248
244
root -3.22688 3.28606 21.898 -967.857 1.20235 -166.017
lowerback 64.4825 2.36007 18.7956
upperback 25.9341 -8.31726 6.54679
thorax 10.2026 -12.6371 0.329055
lowerneck -8.24808 -3.74058 -10.4407
upperneck -11.1455 -2.8087 7.8276
head -1.68503 -0.670654 4.04112
rclavicle -4.92986e-014 3.65764e-014
rhumerus -40.469 46.5644 -101.744
rradius 31.2893
rwrist -17.7572
rhand -27.4554 -13.0104
rfingers 7.12502
rthumb -0.859955 -42.9884
lclavicle -4.92986e-014 3.65764e-014
lhumerus -23.647 33.259 71.2768
lradius 13.4306
lwrist 30.1875
lhand -18.7857 -18.5762
lfingers 7.12502
lthumb 7.51204 11.2704
rfemur -23.9936 -70.3187 -25.4297
rtibia 154.214
rfoot -32.0441 12.7656
rtoes -23.569
lfemur -54.6169 12.2317 -19.2143
ltibia 76.301
lfoot 2.17478 -4.44841
ltoes -2.77109
245
root -3.21476 3.25167 21.8945 -968.099 1.29272 -166.159
lowerback 64.3759 2.41885 18.7187
upperback 25.9247 -8.28985 6.62114
thorax 10.1892 -12.6513 0.428551
lowerneck -8.37048 -3.29718 -10.3139
upperneck -10.9298 -2.24553 7.54931
head -1.66123 -0.401386 3.94164
rclavicle -3.10104e-014 -7.95139e-016
rhumerus -40.7028 46.2219 -101.888
rradius 31.3317
rwrist -18.3505
rhand -28.2789 -13.272
rfingers 7.12502
rthumb -1.65528 -43.2454
lclavicle -3.10104e-014 -7.95139e-016
lhumerus -23.86 33.316 71.2595
lradius 13.3612
lwrist 30.1073
lhand -18.8601 -18.595
lfingers 7.12502
lthumb 7.44021 11.2542
rfemur -23.0818 -70.8099 -26.4244
rtibia 154.416
rfoot -31.7187 12.6024
rtoes -23.4595
lfemur -53.9097 11.8705 -18.8124
ltibia 75.1636
lfoot 2.19728 -4.23705
ltoes -2.08791
246
root -3.20157 3.21731 21.8924 -968.349 1.39835 -166.291
lowerback 64.2756 2.45347 18.6942
upperback 25.9283 -8.2669 6.66548
thorax 10.1939 -12.6563 0.471461
lowerneck -8.50477 -2.85152 -10.1653
upperneck -10.7106 -1.67634 7.31681
head -1.63186 -0.129995 3.85251
rclavicle 7.15625e-015 7.79236e-014
rhumerus -40.8452 45.7429 -101.94
rradius 31.3384
rwrist -18.9208
rhand -28.8953 -13.3429
rfingers 7.12502
rthumb -2.25056 -43.3107
lclavicle 7.15625e-015 7.79236e-014
lhumerus -24.0221 33.2232 71.2344
lradius 13.3032
lwrist 30.1562
lhand -18.9412 -18.638
lfingers 7.12502
lthumb 7.36187 11.2139
rfemur -21.9098 -71.3202 -27.6376
rtibia 154.606
rfoot -31.427 12.4422
rtoes -23.3016
lfemur -53.2699 11.5501 -18.4002
ltibia 74.2004
lfoot 2.34256 -3.9943
ltoes -1.62175
247
root -3.18904 3.18564 21.8938 -968.58 1.48681 -166.436
lowerback 64.1878 2.49016 18.6395
upperback 25.9113 -8.23375 6.69956
thorax 10.1665 -12.6514 0.520986
lowerneck -8.57265 -2.37907 -10.0167
upperneck -10.343 -1.12361 6.79805
head -1.74357 0.145684 4.03324
rclavicle 3.29983e-014 1.35174e-014
rhumerus -41.1415 45.3273 -102.042
rradius 31.4096
rwrist -19.5936
rhand -29.466 -13.3796
rfingers 7.12502
rthumb -2.80179 -43.3409
lclavicle 3.29983e-014 1.35174e-014
lhumerus -24.2004 33.1564 71.1866
lradius 13.2166
lwrist 30.205
lhand -18.9846 -18.6808
lfingers 7.12502
lthumb 7.31998 11.1726
rfemur -20.9589 -71.8024 -28.6417
rtibia 154.775
rfoot -31.0864 12.3284
rtoes -23.1022
lfemur -52.6989 11.2585 -18.0311
ltibia 73.3878
lfoot 2.57744 -3.69419
ltoes -1.53728
